<svg width="381" height="32" viewBox="0 0 381 32" fill="none" xmlns="http://www.w3.org/2000/svg">
<path d="M13.748 24.272L0.32 15.164V12.932L13.748 3.824V6.668L2.912 13.976V14.12L13.748 21.428V24.272ZM42.6999 26V2.384H45.7239V14.228H45.8319L55.7679 2.384H59.1879L45.7239 18.476V26H42.6999ZM56.6679 26L49.3599 12.824L51.1959 10.448L60.0519 26H56.6679ZM69.6138 26.432C68.5338 26.432 67.5378 26.24 66.6258 25.856C65.7138 25.448 64.9938 24.872 64.4658 24.128C63.9378 23.384 63.6738 22.496 63.6738 21.464C63.6738 19.496 64.6578 18.008 66.6258 17C68.5938 15.968 71.8338 15.272 76.3458 14.912C76.3218 14.12 76.1538 13.388 75.8418 12.716C75.5538 12.044 75.0738 11.516 74.4018 11.132C73.7298 10.724 72.8298 10.52 71.7018 10.52C70.9578 10.52 70.2138 10.628 69.4698 10.844C68.7498 11.036 68.0538 11.3 67.3818 11.636C66.7338 11.948 66.1338 12.272 65.5818 12.608L64.4298 10.592C65.0058 10.208 65.7018 9.824 66.5178 9.44C67.3578 9.032 68.2578 8.708 69.2178 8.468C70.1778 8.204 71.1738 8.072 72.2058 8.072C73.8138 8.072 75.1338 8.372 76.1658 8.972C77.2218 9.572 78.0018 10.412 78.5058 11.492C79.0338 12.548 79.2978 13.808 79.2978 15.272V26H76.8858L76.6338 23.624H76.5258C75.5658 24.392 74.4858 25.052 73.2858 25.604C72.0858 26.156 70.8618 26.432 69.6138 26.432ZM70.4058 24.056C71.4138 24.056 72.4098 23.828 73.3938 23.372C74.3778 22.916 75.3618 22.28 76.3458 21.464V16.856C73.8498 17.072 71.8818 17.372 70.4418 17.756C69.0258 18.14 68.0178 18.632 67.4178 19.232C66.8418 19.808 66.5538 20.48 66.5538 21.248C66.5538 21.896 66.7338 22.436 67.0938 22.868C67.4538 23.276 67.9218 23.576 68.4978 23.768C69.0978 23.96 69.7338 24.056 70.4058 24.056ZM87.5998 26V8.504H90.0478L90.2998 12.644H90.4078C91.3198 11.228 92.4478 10.112 93.7918 9.296C95.1358 8.48 96.6118 8.072 98.2198 8.072C98.8678 8.072 99.4678 8.132 100.02 8.252C100.596 8.348 101.148 8.528 101.676 8.792L100.992 11.348C100.392 11.132 99.8758 10.976 99.4438 10.88C99.0118 10.784 98.4478 10.736 97.7518 10.736C96.4318 10.736 95.1598 11.12 93.9358 11.888C92.7358 12.632 91.6078 13.916 90.5518 15.74V26H87.5998ZM114.73 26.432C113.194 26.432 111.766 26.072 110.446 25.352C109.15 24.632 108.094 23.588 107.278 22.22C106.486 20.852 106.09 19.208 106.09 17.288C106.09 15.32 106.486 13.652 107.278 12.284C108.094 10.916 109.15 9.872 110.446 9.152C111.766 8.432 113.194 8.072 114.73 8.072C116.266 8.072 117.682 8.432 118.978 9.152C120.298 9.872 121.354 10.916 122.146 12.284C122.962 13.652 123.37 15.32 123.37 17.288C123.37 19.208 122.962 20.852 122.146 22.22C121.354 23.588 120.298 24.632 118.978 25.352C117.682 26.072 116.266 26.432 114.73 26.432ZM114.73 23.984C115.858 23.984 116.842 23.708 117.682 23.156C118.522 22.58 119.17 21.788 119.626 20.78C120.082 19.772 120.31 18.608 120.31 17.288C120.31 15.944 120.082 14.768 119.626 13.76C119.17 12.728 118.522 11.936 117.682 11.384C116.842 10.808 115.858 10.52 114.73 10.52C113.602 10.52 112.618 10.808 111.778 11.384C110.962 11.936 110.314 12.728 109.834 13.76C109.378 14.768 109.15 15.944 109.15 17.288C109.15 18.608 109.378 19.772 109.834 20.78C110.314 21.788 110.962 22.58 111.778 23.156C112.618 23.708 113.602 23.984 114.73 23.984ZM140.132 26.432C138.284 26.432 136.868 25.904 135.884 24.848C134.9 23.768 134.408 22.196 134.408 20.132V2.78H128.432V0.368H137.36V20.348C137.36 21.62 137.672 22.544 138.296 23.12C138.92 23.696 139.748 23.984 140.78 23.984C141.284 23.984 141.8 23.924 142.328 23.804C142.856 23.66 143.444 23.444 144.092 23.156L144.848 25.388C144.056 25.676 143.312 25.916 142.616 26.108C141.92 26.324 141.092 26.432 140.132 26.432Z" fill="#1E1E1E"/>
<path d="M172.252 26V2.384H178.948C180.556 2.384 181.96 2.576 183.16 2.96C184.384 3.344 185.332 3.956 186.004 4.796C186.7 5.636 187.048 6.752 187.048 8.144C187.048 9.32 186.712 10.388 186.04 11.348C185.368 12.284 184.324 12.932 182.908 13.292V13.436C184.636 13.7 185.98 14.3 186.94 15.236C187.9 16.172 188.38 17.456 188.38 19.088C188.38 20.624 188.008 21.908 187.264 22.94C186.52 23.972 185.476 24.74 184.132 25.244C182.812 25.748 181.264 26 179.488 26H172.252ZM175.24 12.32H178.444C180.46 12.32 181.9 11.996 182.764 11.348C183.652 10.7 184.096 9.716 184.096 8.396C184.096 7.124 183.628 6.224 182.692 5.696C181.78 5.168 180.412 4.904 178.588 4.904H175.24V12.32ZM175.24 23.48H179.056C181.072 23.48 182.632 23.132 183.736 22.436C184.864 21.716 185.428 20.552 185.428 18.944C185.428 17.48 184.876 16.436 183.772 15.812C182.692 15.164 181.12 14.84 179.056 14.84H175.24V23.48ZM201.649 26V10.916H193.513V8.504H204.601V26H201.649ZM202.801 4.832C202.129 4.832 201.565 4.628 201.109 4.22C200.653 3.788 200.425 3.224 200.425 2.528C200.425 1.832 200.653 1.28 201.109 0.872C201.565 0.439999 202.129 0.223999 202.801 0.223999C203.473 0.223999 204.037 0.439999 204.493 0.872C204.949 1.28 205.177 1.832 205.177 2.528C205.177 3.224 204.949 3.788 204.493 4.22C204.037 4.628 203.473 4.832 202.801 4.832ZM223.739 26.432C221.987 26.432 220.391 26.072 218.951 25.352C217.535 24.632 216.407 23.588 215.567 22.22C214.727 20.828 214.307 19.16 214.307 17.216C214.307 15.32 214.727 13.688 215.567 12.32C216.407 10.952 217.499 9.908 218.843 9.188C220.211 8.444 221.675 8.072 223.235 8.072C224.915 8.072 226.343 8.42 227.519 9.116C228.719 9.788 229.631 10.736 230.255 11.96C230.903 13.184 231.227 14.624 231.227 16.28C231.227 16.616 231.215 16.94 231.191 17.252C231.167 17.564 231.131 17.84 231.083 18.08H216.287V15.776H229.319L228.563 16.604C228.563 14.54 228.083 12.992 227.123 11.96C226.187 10.928 224.915 10.412 223.307 10.412C222.227 10.412 221.219 10.676 220.283 11.204C219.371 11.732 218.639 12.5 218.087 13.508C217.535 14.516 217.259 15.752 217.259 17.216C217.259 18.728 217.559 19.988 218.159 20.996C218.759 22.004 219.575 22.772 220.607 23.3C221.639 23.804 222.803 24.056 224.099 24.056C225.155 24.056 226.103 23.912 226.943 23.624C227.807 23.312 228.635 22.904 229.427 22.4L230.507 24.344C229.643 24.92 228.647 25.412 227.519 25.82C226.415 26.228 225.155 26.432 223.739 26.432ZM238.701 26V8.504H241.149L241.401 12.644H241.509C242.421 11.228 243.549 10.112 244.893 9.296C246.237 8.48 247.713 8.072 249.321 8.072C249.969 8.072 250.569 8.132 251.121 8.252C251.697 8.348 252.249 8.528 252.777 8.792L252.093 11.348C251.493 11.132 250.977 10.976 250.545 10.88C250.113 10.784 249.549 10.736 248.853 10.736C247.533 10.736 246.261 11.12 245.037 11.888C243.837 12.632 242.709 13.916 241.653 15.74V26H238.701ZM258.379 26V8.504H260.827L261.079 11.492H261.223C262.135 10.508 263.119 9.692 264.175 9.044C265.231 8.396 266.443 8.072 267.811 8.072C269.875 8.072 271.399 8.672 272.383 9.872C273.367 11.072 273.859 12.824 273.859 15.128V26H270.907V15.524C270.907 13.868 270.595 12.644 269.971 11.852C269.347 11.036 268.315 10.628 266.875 10.628C265.843 10.628 264.919 10.892 264.103 11.42C263.287 11.948 262.363 12.74 261.331 13.796V26H258.379ZM285.473 26.432C284.393 26.432 283.397 26.24 282.485 25.856C281.573 25.448 280.853 24.872 280.325 24.128C279.797 23.384 279.533 22.496 279.533 21.464C279.533 19.496 280.517 18.008 282.485 17C284.453 15.968 287.693 15.272 292.205 14.912C292.181 14.12 292.013 13.388 291.701 12.716C291.413 12.044 290.933 11.516 290.261 11.132C289.589 10.724 288.689 10.52 287.561 10.52C286.817 10.52 286.073 10.628 285.329 10.844C284.609 11.036 283.913 11.3 283.241 11.636C282.593 11.948 281.993 12.272 281.441 12.608L280.289 10.592C280.865 10.208 281.561 9.824 282.377 9.44C283.217 9.032 284.117 8.708 285.077 8.468C286.037 8.204 287.033 8.072 288.065 8.072C289.673 8.072 290.993 8.372 292.025 8.972C293.081 9.572 293.861 10.412 294.365 11.492C294.893 12.548 295.157 13.808 295.157 15.272V26H292.745L292.493 23.624H292.385C291.425 24.392 290.345 25.052 289.145 25.604C287.945 26.156 286.721 26.432 285.473 26.432ZM286.265 24.056C287.273 24.056 288.269 23.828 289.253 23.372C290.237 22.916 291.221 22.28 292.205 21.464V16.856C289.709 17.072 287.741 17.372 286.301 17.756C284.885 18.14 283.877 18.632 283.277 19.232C282.701 19.808 282.413 20.48 282.413 21.248C282.413 21.896 282.593 22.436 282.953 22.868C283.313 23.276 283.781 23.576 284.357 23.768C284.957 23.96 285.593 24.056 286.265 24.056ZM312.387 26.432C310.683 26.432 309.339 26.132 308.355 25.532C307.371 24.908 306.663 24.056 306.231 22.976C305.823 21.896 305.619 20.636 305.619 19.196V10.916H300.687V8.684L305.727 8.504L306.123 2.888H308.571V8.504H317.175V10.916H308.571V19.232C308.571 20.264 308.703 21.14 308.967 21.86C309.231 22.58 309.687 23.12 310.335 23.48C310.983 23.84 311.871 24.02 312.999 24.02C313.839 24.02 314.595 23.948 315.267 23.804C315.939 23.66 316.587 23.468 317.211 23.228L317.859 25.388C317.067 25.676 316.227 25.916 315.339 26.108C314.475 26.324 313.491 26.432 312.387 26.432ZM344.939 31.76L356.747 0.439999H359.411L347.603 31.76H344.939ZM366.813 24.272V21.428L377.649 14.12V13.976L366.813 6.668V3.824L380.241 12.932V15.164L366.813 24.272Z" fill="#1E90FF"/>
</svg>
